<svg height="464pt" viewBox="0 0 464 464" width="464pt" xmlns="http://www.w3.org/2000/svg"><path d="m384 0c-17.671875 0-32 14.328125-32 32v64h64v-64c0-17.671875-14.328125-32-32-32zm0 0" fill="#da8249"/><path d="m128 0c-17.671875 0-32 14.328125-32 32v432h256v-432c0-17.671875 14.328125-32 32-32zm0 0" fill="#ffd487"/><path d="m0 96h464v256h-464zm0 0" fill="#80caca"/><path d="m0 96 232 160 232-160zm0 0" fill="#3c72a6"/><path d="m320 224c0 53.019531-42.980469 96-96 96s-96-42.980469-96-96 42.980469-96 96-96 96 42.980469 96 96zm0 0" fill="#ffd487"/><path d="m248 224 32-32-24-24-32 32-32-32-24 24 32 32-32 32 24 24 32-32 32 32 24-24zm0 0" fill="#d92546"/><g fill="#da8249"><path d="m312 424h16v16h-16zm0 0"/><path d="m280 424h16v16h-16zm0 0"/></g></svg>